mtllib materials.mtl
v 0.0134721 -0.03279972 -0.03962541
v 0.04292761 -0.02649403 0.01226497
v 0.03916163 0.03316903 0.007152557
v 0.00970611 0.02686334 -0.04473782
v -0.03866418 -0.03354692 -0.009939671
v -0.04243015 0.02611613 -0.01505208
v -0.01297463 0.03242183 0.03683829
v -0.009208649 -0.02724123 0.0419507
v -0.03324914 -0.003034592 -0.05936623
v -0.009688795 0.01738405 -0.02730393
v -0.01860479 0.01683104 -0.02207136
v -0.001672789 0.01269519 -0.03187966
v 0.003295377 0.00402081 -0.0345726
v 0.003884465 -0.006314754 -0.03466105
v -6.337464E-05 -0.01554215 -0.03212166
v -0.007490292 -0.02118897 -0.02763438
v -0.01640628 -0.02174187 -0.02240181
v -0.0244223 -0.01705301 -0.01782608
v -0.02939045 -0.008378625 -0.01513314
v -0.02997954 0.00195694 -0.01504469
v -0.02603172 0.01118433 -0.01758409
v -0.05935059 0.001205087 0.03185105
v -0.01946847 0.01736903 0.01967978
v -0.01593873 0.01063693 0.02670813
v -0.02431495 0.01927412 0.01073194
v -0.02917957 0.01584148 0.002262354
v -0.03275886 0.007991076 -0.003459454
v -0.03409374 -0.002173543 -0.004900455
v -0.03282654 -0.01192904 -0.001674652
v -0.0292968 -0.01866114 0.005353928
v -0.0244503 -0.02056611 0.01430154
v -0.01958568 -0.01713347 0.02277112
v -0.0160064 -0.009283185 0.02849293
v -0.01467152 0.0008815527 0.02993393
v 0.03068461 0.008149028 0.05982161
v 0.01942745 0.01911366 0.01795197
v 0.02670989 0.01218975 0.01546073
v 0.01029143 0.02135479 0.02227521
v 0.001749828 0.01831293 0.02727199
v -0.003908634 0.01080287 0.03160334
v -0.005167797 0.0008370876 0.03410888
v -0.001690239 -0.008914113 0.03411698
v 0.005592212 -0.01583791 0.03162575
v 0.01472822 -0.01807916 0.02730274
v 0.02326982 -0.01503718 0.02230597
v 0.02892829 -0.007527232 0.01797462
v 0.03018744 0.002438545 0.01546907
v 0.06034249 0.00190711 -0.03212547
v 0.02067889 0.01773453 -0.01884818
v 0.01703306 0.01125848 -0.02605581
v 0.02565403 0.01931667 -0.009908199
v 0.03062538 0.01558089 -0.001631021
v 0.03426088 0.007528424 0.003765106
v 0.0355864 -0.002683282 0.004834652
v 0.03424677 -0.0123179 0.001291037
v 0.03060094 -0.01879394 -0.005916595
v 0.02562581 -0.02037609 -0.01485682
v 0.02065445 -0.01664042 -0.02313375
v 0.01701895 -0.008587837 -0.02853012
v 0.01569343 0.001623869 -0.02959943
v -0.003253326 0.06868219 -0.005495071
v -0.01824953 0.02885616 0.008252859
v -0.02064091 0.02765024 -0.001747608
v -0.01115306 0.03009629 0.01568794
v -0.001253024 0.03103817 0.01856565
v 0.008797884 0.03142941 0.01611519
v 0.01630653 0.03116524 0.008992672
v 0.01926098 0.03031647 -0.0008933544
v 0.01686958 0.02911043 -0.01089358
v 0.00977312 0.02787042 -0.01832891
v -0.0001269132 0.02692854 -0.02120662
v -0.01017782 0.0265373 -0.01875591
v -0.01768647 0.02680135 -0.0116334
v 0.005003229 -0.06685829 0.006365061
v 0.02073295 -0.02499771 0.006885052
v 0.02044494 -0.02604187 -0.003410816
v 0.01582956 -0.02454853 0.01599193
v 0.007048592 -0.02481461 0.02146959
v -0.003257066 -0.02572465 0.02185011
v -0.01232605 -0.02703476 0.01703167
v -0.01772831 -0.02839386 0.00830555
v -0.01801632 -0.0294379 -0.001990557
v -0.01311293 -0.02988708 -0.01109743
v -0.004331976 -0.02962112 -0.01657486
v 0.005973682 -0.02871108 -0.01695538
v 0.01504268 -0.02740097 -0.01213717
vn 0.8689377 0.01245276 -0.4947647
vn -0.8689377 -0.01245276 0.4947647
vn 0.06276633 -0.9943843 0.08520657
vn -0.06276633 0.9943843 -0.08520657
vn -0.4909253 -0.1050938 -0.8648397
vn 0.4909253 0.1050938 0.8648397
vn -0.2708797 0.8896844 -0.3675404
vn 0.1237397 0.7932932 -0.5961329
vn 0.4263505 0.4818469 -0.7655383
vn 0.5558683 0.03879752 -0.8303645
vn 0.477589 -0.4171406 -0.7732415
vn 0.2124874 -0.7637991 -0.6094752
vn -0.1684026 -0.908291 -0.3829467
vn -0.563022 -0.8118997 -0.1543542
vn -0.8656325 -0.5004535 0.01505111
vn -0.9951505 -0.05740409 0.07987736
vn -0.9168712 0.3985341 0.02275436
vn -0.6517695 0.7451927 -0.1410121
vn 0.5050401 0.02139193 0.8628308
vn -0.0688628 0.7029504 0.7078974
vn -0.2640803 0.9042484 0.3355541
vn -0.4904088 0.8686465 -0.07037476
vn -0.6872035 0.6056845 -0.4011207
vn -0.8017337 0.1858224 -0.5680609
vn -0.8033109 -0.2784378 -0.5264637
vn -0.6915126 -0.6626979 -0.287475
vn -0.4962951 -0.8639957 0.08486827
vn -0.2699668 -0.8283939 0.490797
vn -0.073172 -0.5654318 0.821543
vn 0.04135818 -0.1455698 0.9884831
vn 0.04293536 0.3186906 0.9468859
vn 0.8741993 -0.04627821 -0.483357
vn 0.6897761 0.7240109 0.004145802
vn 0.3071252 0.9376124 0.1629635
vn -0.1048716 0.9189502 0.3801745
vn -0.43582 0.6730248 0.5975772
vn -0.597043 0.2657318 0.756919
vn -0.5453409 -0.1937952 0.815504
vn -0.294567 -0.582426 0.7576347
vn 0.08808377 -0.7960274 0.598817
vn 0.5000804 -0.7773651 0.3816061
vn 0.831029 -0.5314397 0.1642033
vn 0.992252 -0.1241467 0.004861606
vn 0.9405497 0.3353804 -0.05372346
vn -0.4543694 -0.1627796 -0.8758147
vn 0.06108753 0.7269 -0.684021
vn 0.2620089 0.9147037 -0.3076824
vn 0.493823 0.8645122 0.09358219
vn 0.6944154 0.5897743 0.4122543
vn 0.8100377 0.1641057 0.5629461
vn 0.8097088 -0.298436 0.5052798
vn 0.6935169 -0.673913 0.2547069
vn 0.4925956 -0.8617166 -0.1216315
vn 0.2607816 -0.811525 -0.5228961
vn 0.06018913 -0.5367871 -0.8415682
vn -0.05543314 -0.1111186 -0.99226
vn -0.05510421 0.3514234 -0.9345936
vn -0.8675644 -0.06091908 0.4935796
vn -0.9020945 0.3975907 0.1677712
vn -0.6809692 0.4545993 0.5741258
vn -0.2848466 0.5054518 0.814482
vn 0.1801325 0.5365223 0.8244369
vn 0.5893778 0.5394855 0.6013229
vn 0.8332319 0.5135475 0.2049232
vn 0.8463544 0.4656582 -0.2585471
vn 0.6252292 0.4086497 -0.6649014
vn 0.2291067 0.3577973 -0.9052576
vn -0.2358726 0.3267267 -0.9152125
vn -0.6451178 0.3237635 -0.6920986
vn -0.888972 0.3497016 -0.2956986
vn 0.06408394 -0.9924724 0.1043641
vn 0.9360125 -0.3518387 0.009493838
vn 0.8284459 -0.3170369 0.461698
vn 0.5095165 -0.3127685 0.801604
vn 0.06468129 -0.3401773 0.9381343
vn -0.3868667 -0.391919 0.8347057
vn -0.7241356 -0.4541295 0.5190319
vn -0.8567541 -0.5101396 0.07569739
vn -0.7491874 -0.5449414 -0.3765066
vn -0.430258 -0.5492097 -0.7164124
vn 0.01457723 -0.521801 -0.8529427
vn 0.4661252 -0.4700592 -0.7495143
vn 0.8033941 -0.4078487 -0.4338402
vn -0.09112299 0.9910114 -0.09794418
vt -0.2560977 0.02936419
vt -0.2507412 0.03206749
vt -0.2534445 0.037424
vt -0.258801 0.0347207
vt 0.2560977 0.02936418
vt 0.258801 0.03472069
vt 0.2534445 0.03742399
vt 0.2507412 0.03206748
vt -0.2358615 0.06800452
vt -0.2345553 0.0621484
vt -0.2286992 0.06345452
vt -0.2300053 0.06931062
vt 0.2358615 0.06800452
vt 0.2300053 0.06931062
vt 0.2286992 0.06345452
vt 0.2345553 0.0621484
vt -0.08193163 0.1649087
vt -0.08741959 0.167334
vt -0.08984491 0.1618461
vt -0.08435695 0.1594207
vt 0.08193164 0.1649087
vt 0.08435695 0.1594208
vt 0.08984492 0.1618461
vt 0.0874196 0.167334
vt 0.1856692 0.06434648
vt 0.181654 0.06631583
vt 0.1813087 0.06533981
vt 0.1322529 -0.05038766
vt 0.1291626 -0.04715503
vt 0.1285021 -0.04795223
vt -0.01326022 -0.1400738
vt -0.01372879 -0.1356263
vt -0.01473889 -0.1358532
vt -0.1859678 -0.059117
vt -0.1830557 -0.05572293
vt -0.1839142 -0.05514427
vt -0.243039 0.05767501
vt -0.2388844 0.05933
vt -0.2393762 0.06024097
vt -0.2560052 0.1140297
vt -0.2515564 0.1144858
vt -0.2517805 0.1154966
vt -0.2584979 0.1235708
vt -0.2540578 0.1230361
vt -0.2540539 0.1240714
vt -0.2538608 0.1234102
vt -0.2497528 0.1216426
vt -0.2494564 0.1226346
vt -0.1627322 0.2305355
vt -0.1612266 0.2263244
vt -0.1602986 0.2267834
vt 0.1546445 0.2411434
vt 0.1506135 0.2392068
vt 0.1511668 0.2383318
vt 0.2025565 0.1942156
vt 0.1980848 0.194151
vt 0.1982195 0.1931246
vt 0.2036598 0.1463033
vt 0.1992959 0.1472813
vt 0.199188 0.1462516
vt 0.06744033 0.1596974
vt 0.06704671 0.160655
vt 0.06622706 0.1612874
vt 0.06520101 0.1614253
vt 0.06424348 0.1610317
vt 0.06361105 0.160212
vt 0.06347317 0.159186
vt 0.06386681 0.1582284
vt 0.06468645 0.157596
vt 0.0657125 0.1574581
vt 0.06667002 0.1578517
vt 0.06730246 0.1586714
vt 0.2385397 0.1138841
vt 0.2381895 0.1183425
vt 0.2371738 0.1181425
vt 0.254169 0.1098783
vt 0.2549416 0.1142833
vt 0.253908 0.1143429
vt 0.2156673 0.11517
vt 0.2174627 0.1192659
vt 0.2164728 0.119569
vt 0.137168 0.1535016
vt 0.1396678 0.1572099
vt 0.1387481 0.1576853
vt 0.03489694 0.2098114
vt 0.03772458 0.2132761
vt 0.03685215 0.2138335
vt -0.08503775 0.2403819
vt -0.08232003 0.2439335
vt -0.08320951 0.2444632
vt -0.209017 0.1845113
vt -0.2071431 0.1885719
vt -0.208127 0.188894
vt -0.251337 0.02675938
vt -0.2512645 0.03123093
vt -0.2522946 0.0311278
vt -0.1569327 -0.0716664
vt -0.1583742 -0.06743295
vt -0.1593091 -0.06787784
vt -0.03064106 -0.04737559
vt -0.03260172 -0.04335616
vt -0.03347339 -0.04391469
vt 0.08173874 0.02613563
vt 0.0798989 0.03021177
vt 0.07901093 0.0296795
vt 0.1750328 0.08928981
vt 0.1737556 0.09357568
vt 0.1728043 0.09316716
vt -0.2542858 0.05546617
vt -0.255237 0.05587488
vt -0.2562651 0.05575324
vt -0.2570947 0.05513384
vt -0.2575034 0.05418266
vt -0.2573817 0.05315456
vt -0.2567623 0.052325
vt -0.2558112 0.05191629
vt -0.2547831 0.05203794
vt -0.2539535 0.05265734
vt -0.2535448 0.05360852
vt -0.2536665 0.05463663
vt 0.2429569 0.1031099
vt 0.2470715 0.1048621
vt 0.2465584 0.1057612
vt 0.2493306 0.09396075
vt 0.2538025 0.09391974
vt 0.2536922 0.09494911
vt 0.2493281 0.1168358
vt 0.2536727 0.1157754
vt 0.2538002 0.1168028
vt 0.2476493 0.1067172
vt 0.251624 0.1046674
vt 0.2519889 0.1056363
vt 0.2310024 0.03387345
vt 0.2340069 0.03056085
vt 0.2346881 0.03134045
vt 0.1403543 -0.09194268
vt 0.1406911 -0.09640212
vt 0.1417074 -0.09620519
vt -0.03088626 -0.09933969
vt -0.03383077 -0.1027057
vt -0.0329779 -0.1032926
vt -0.1228764 0.009413464
vt -0.1270283 0.007751453
vt -0.1265349 0.006841321
vt -0.1576747 0.114588
vt -0.1621212 0.1141099
vt -0.1618921 0.1131003
vt -0.167822 0.1866804
vt -0.1722655 0.1871859
vt -0.1722626 0.1861506
vt -0.1517912 0.2290915
vt -0.1559113 0.2308307
vt -0.1562008 0.2298367
vt 0.00805939 0.2723785
vt 0.006688035 0.2766352
vt 0.005746008 0.2762058
vt -0.1025372 0.1617276
vt -0.1034883 0.1613189
vt -0.1041077 0.1604893
vt -0.1042293 0.1594612
vt -0.1038205 0.15851
vt -0.1029909 0.1578907
vt -0.1019628 0.1577691
vt -0.1010116 0.1581779
vt -0.1003923 0.1590074
vt -0.1002707 0.1600355
vt -0.1006795 0.1609867
vt -0.1015091 0.161606
vt 0.09954514 -0.03247083
vt 0.09716094 -0.03625442
vt 0.09809483 -0.03670126
vt 0.2112589 -0.01411326
vt 0.2094357 -0.01819685
vt 0.2104235 -0.01850667
vt 0.2545311 0.09843879
vt 0.2539305 0.09400718
vt 0.2549656 0.09398784
vt 0.179221 0.2170057
vt 0.1799397 0.2125917
vt 0.1809354 0.2128752
vt 0.04836345 0.2478377
vt 0.0497771 0.2435949
vt 0.05071481 0.2440336
vt -0.07564106 0.2128172
vt -0.07414608 0.2086024
vt -0.073217 0.2090591
vt -0.1750769 0.1627114
vt -0.1739415 0.1583858
vt -0.1729773 0.1587627
vt -0.2392013 0.1313534
vt -0.2387626 0.1269028
vt -0.237751 0.127123
vt -0.2541557 0.1227126
vt -0.2546194 0.1182645
vt -0.2535842 0.1182771
vt -0.2142453 0.1124115
vt -0.2156034 0.1081506
vt -0.2145873 0.1079525
vt -0.1306669 0.07551594
vt -0.1327072 0.07153635
vt -0.1317374 0.07117383
vt -0.02137614 0.01549456
vt -0.0237812 0.01172419
vt -0.02284981 0.0112722
vt 0.2552623 0.01883302
vt 0.254772 0.01974479
vt 0.2538914 0.0202892
vt 0.2528566 0.02032038
vt 0.2519448 0.01982999
vt 0.2514004 0.01894941
vt 0.2513692 0.01791462
vt 0.2518596 0.01700285
vt 0.2527402 0.01645843
vt 0.253775 0.01642724
vt 0.2546868 0.01691764
vt 0.2552312 0.01779822
vt 0.2220449 0.1770963
vt 0.221806 0.1726305
vt 0.2228393 0.1726953
vt 0.2579212 0.09336504
vt 0.2552384 0.08978696
vt 0.256133 0.08926596
vt 0.2346492 0.08611131
vt 0.2307857 0.08385896
vt 0.2314071 0.08303093
vt 0.2035531 0.1401736
vt 0.199253 0.1389451
vt 0.1996507 0.1379893
vt 0.1776276 0.2034715
vt 0.1731778 0.2030258
vt 0.1733995 0.2020145
vt 0.1599526 0.2356831
vt 0.1554897 0.2359711
vt 0.1555431 0.2349372
vt 0.2376179 0.1080552
vt 0.2344691 0.1112308
vt 0.2338233 0.1104216
vt -0.07284093 -0.1750177
vt -0.06840551 -0.1755896
vt -0.06839286 -0.1745544
vt -0.05428543 -0.06310202
vt -0.05001327 -0.06442435
vt -0.04982368 -0.06340659
vt -0.01912006 0.06173112
vt -0.01513527 0.05970102
vt -0.01477524 0.06067168
vt 0.03538728 0.1693581
vt 0.03880351 0.1664721
vt 0.03937558 0.1673349
vt 0.1207349 0.2212502
vt 0.1229055 0.2173402
vt 0.1237464 0.2179441
vt -0.2303325 0.06131614
vt -0.2292986 0.06126249
vt -0.2283764 0.06173297
vt -0.227813 0.06260152
vt -0.2277593 0.06363539
vt -0.2282298 0.0645576
vt -0.2290984 0.06512101
vt -0.2301323 0.06517465
vt -0.2310545 0.06470418
vt -0.2316179 0.06383564
vt -0.2316715 0.06280175
vt -0.231201 0.06187955
vt -0.1875142 0.1973024
vt -0.1856507 0.2013678
vt -0.1866354 0.2016874
vt -0.08935838 0.205581
vt -0.08578879 0.208275
vt -0.08650391 0.2090237
vt -0.02123536 0.1291211
vt -0.0170252 0.1306292
vt -0.01748481 0.1315569
vt 0.02062044 0.01195258
vt 0.02504898 0.01257544
vt 0.02478711 0.01357704
vt 0.04460996 -0.1108999
vt 0.04907928 -0.1110581
vt 0.04899591 -0.1100262
vt 0.02851803 -0.2146798
vt 0.03275485 -0.2161114
vt 0.03297048 -0.2150988
vt -0.17361 0.2062685
vt -0.1780577 0.2058016
vt -0.1778312 0.2047914
vt -0.1598595 0.223414
vt -0.1642482 0.2242737
vt -0.1643283 0.2232415
vt -0.177632 0.1750879
vt -0.1818036 0.1766995
vt -0.1820624 0.1756971
vt -0.204687 0.107432
vt -0.2084475 0.1098524
vt -0.2089033 0.1089229
vt -0.237292 0.06685618
vt -0.240169 0.07028001
vt -0.2408792 0.06952672
vt -0.251203 0.1069938
vt -0.2521274 0.1113693
vt -0.2531088 0.1110396
vt 0.2297778 0.06901981
vt 0.2287766 0.06875638
vt 0.2280412 0.06802763
vt 0.2277687 0.06702885
vt 0.2280322 0.06602766
vt 0.2287609 0.06529231
vt 0.2297597 0.06501985
vt 0.2307609 0.06528328
vt 0.2314963 0.06601202
vt 0.2317687 0.0670108
vt 0.2315053 0.06801199
vt 0.2307765 0.06874735
o group731206801
g mesh731206801
usemtl mat6
f 4/4/1 3/3/1 2/2/1 1/1/1
f 8/8/2 7/7/2 6/6/2 5/5/2
f 2/12/3 8/11/3 5/10/3 1/9/3
f 6/16/4 7/15/4 3/14/4 4/13/4
f 5/20/5 6/19/5 4/18/5 1/17/5
f 3/24/6 7/23/6 8/22/6 2/21/6
o group195887123
g mesh195887123
usemtl mat6
f 11/27/7 10/26/7 9/25/7
f 10/30/8 12/29/8 9/28/8
f 12/33/9 13/32/9 9/31/9
f 13/36/10 14/35/10 9/34/10
f 14/39/11 15/38/11 9/37/11
f 15/42/12 16/41/12 9/40/12
f 16/45/13 17/44/13 9/43/13
f 17/48/14 18/47/14 9/46/14
f 18/51/15 19/50/15 9/49/15
f 19/54/16 20/53/16 9/52/16
f 20/57/17 21/56/17 9/55/17
f 21/60/18 11/59/18 9/58/18
f 21/72/19 20/71/19 19/70/19 18/69/19 17/68/19 16/67/19 15/66/19 14/65/19 13/64/19 12/63/19 10/62/19 11/61/19
o group1697898123
g mesh1697898123
usemtl mat6
f 24/75/20 23/74/20 22/73/20
f 23/78/21 25/77/21 22/76/21
f 25/81/22 26/80/22 22/79/22
f 26/84/23 27/83/23 22/82/23
f 27/87/24 28/86/24 22/85/24
f 28/90/25 29/89/25 22/88/25
f 29/93/26 30/92/26 22/91/26
f 30/96/27 31/95/27 22/94/27
f 31/99/28 32/98/28 22/97/28
f 32/102/29 33/101/29 22/100/29
f 33/105/30 34/104/30 22/103/30
f 34/108/31 24/107/31 22/106/31
f 34/120/32 33/119/32 32/118/32 31/117/32 30/116/32 29/115/32 28/114/32 27/113/32 26/112/32 25/111/32 23/110/32 24/109/32
o group268624196
g mesh268624196
usemtl mat6
f 37/123/33 36/122/33 35/121/33
f 36/126/34 38/125/34 35/124/34
f 38/129/35 39/128/35 35/127/35
f 39/132/36 40/131/36 35/130/36
f 40/135/37 41/134/37 35/133/37
f 41/138/38 42/137/38 35/136/38
f 42/141/39 43/140/39 35/139/39
f 43/144/40 44/143/40 35/142/40
f 44/147/41 45/146/41 35/145/41
f 45/150/42 46/149/42 35/148/42
f 46/153/43 47/152/43 35/151/43
f 47/156/44 37/155/44 35/154/44
f 47/168/45 46/167/45 45/166/45 44/165/45 43/164/45 42/163/45 41/162/45 40/161/45 39/160/45 38/159/45 36/158/45 37/157/45
o group1718580438
g mesh1718580438
usemtl mat6
f 50/171/46 49/170/46 48/169/46
f 49/174/47 51/173/47 48/172/47
f 51/177/48 52/176/48 48/175/48
f 52/180/49 53/179/49 48/178/49
f 53/183/50 54/182/50 48/181/50
f 54/186/51 55/185/51 48/184/51
f 55/189/52 56/188/52 48/187/52
f 56/192/53 57/191/53 48/190/53
f 57/195/54 58/194/54 48/193/54
f 58/198/55 59/197/55 48/196/55
f 59/201/56 60/200/56 48/199/56
f 60/204/57 50/203/57 48/202/57
f 60/216/58 59/215/58 58/214/58 57/213/58 56/212/58 55/211/58 54/210/58 53/209/58 52/208/58 51/207/58 49/206/58 50/205/58
o group578258270
g mesh578258270
usemtl mat6
f 63/219/59 62/218/59 61/217/59
f 62/222/60 64/221/60 61/220/60
f 64/225/61 65/224/61 61/223/61
f 65/228/62 66/227/62 61/226/62
f 66/231/63 67/230/63 61/229/63
f 67/234/64 68/233/64 61/232/64
f 68/237/65 69/236/65 61/235/65
f 69/240/66 70/239/66 61/238/66
f 70/243/67 71/242/67 61/241/67
f 71/246/68 72/245/68 61/244/68
f 72/249/69 73/248/69 61/247/69
f 73/252/70 63/251/70 61/250/70
f 73/264/71 72/263/71 71/262/71 70/261/71 69/260/71 68/259/71 67/258/71 66/257/71 65/256/71 64/255/71 62/254/71 63/253/71
o group727775958
g mesh727775958
usemtl mat6
f 76/267/72 75/266/72 74/265/72
f 75/270/73 77/269/73 74/268/73
f 77/273/74 78/272/74 74/271/74
f 78/276/75 79/275/75 74/274/75
f 79/279/76 80/278/76 74/277/76
f 80/282/77 81/281/77 74/280/77
f 81/285/78 82/284/78 74/283/78
f 82/288/79 83/287/79 74/286/79
f 83/291/80 84/290/80 74/289/80
f 84/294/81 85/293/81 74/292/81
f 85/297/82 86/296/82 74/295/82
f 86/300/83 76/299/83 74/298/83
f 86/312/84 85/311/84 84/310/84 83/309/84 82/308/84 81/307/84 80/306/84 79/305/84 78/304/84 77/303/84 75/302/84 76/301/84
