{
	"asset": {
		"generator": "Blocks",
		"version": "105",
		"copyright": "Unknown"
	},
	"buffers": {
		"model": {
			"byteLength": 8348,
			"type": "arraybuffer",
			"uri": "model.bin"
		}
	},
	"accessors": {
		"accessor_position_m0-PolyPaper0_-21330": {
			"bufferView": "vec3BufferView",
			"byteOffset": 0,
			"byteStride": 12,
			"componentType": 5126,
			"count": 194,
			"max": [ 0.09221043, 1.274802, -0.7629541 ],
			"min": [ -0.09359302, 1.120651, -0.9391415 ],
			"type": "VEC3"
		 },
		"accessor_normal_m0-PolyPaper0_-21330": {
			"bufferView": "vec3BufferView",
			"byteOffset": 2328,
			"byteStride": 12,
			"componentType": 5126,
			"count": 194,
			"max": [ 0.9280803, 0.9999597, 0.9282182 ],
			"min": [ -0.9824113, -0.9999597, -0.9949254 ],
			"type": "VEC3"
		 },
		"accessor_color_m0-PolyPaper0_-21330": {
			"bufferView": "vec4BufferView",
			"byteOffset": 0,
			"byteStride": 16,
			"componentType": 5126,
			"count": 194,
			"max": [ 0.7294118, 0.4078431, 0.7843137, 1 ],
			"min": [ 0.7294118, 0.4078431, 0.7843137, 1 ],
			"type": "VEC4"
		 },
		"accessor_indices_0_m0-PolyPaper0_-21330": {
			"bufferView": "ushortBufferView",
			"byteOffset": 0,
			"byteStride": 0,
			"componentType": 5123,
			"count": 294,
			"max": [ 193 ],
			"min": [ 0 ],
			"type": "SCALAR"
		 }
	},
	"bufferViews": {
		"ushortBufferView": {
			"buffer": "model",
			"byteLength": 588,
			"byteOffset": 0,
			"target": 34963
		},
		"vec3BufferView": {
			"buffer": "model",
			"byteLength": 4656,
			"byteOffset": 588,
			"target": 34962
		},
		"vec4BufferView": {
			"buffer": "model",
			"byteLength": 3104,
			"byteOffset": 5244,
			"target": 34962
		}
	},
	"meshes": {
		"mesh_m0-PolyPaper0_-21330": {
			"name": "mesh_m0-PolyPaper0_-21330",
			"primitives": [
				{
					"attributes": {
						"POSITION": "accessor_position_m0-PolyPaper0_-21330",
						"NORMAL": "accessor_normal_m0-PolyPaper0_-21330",
						"COLOR": "accessor_color_m0-PolyPaper0_-21330"
					},
					"indices": "accessor_indices_0_m0-PolyPaper0_-21330",
					"material": "material_mat0",
					"mode": 4
				}
			]
		}
	},
	"shaders": {
		"vertex_mat0": {
			"type": 35633,
			"uri": "https://vr.google.com/shaders/w/vs.glsl"
		},
		"fragment_mat0": {
			"type": 35632,
			"uri": "https://vr.google.com/shaders/w/fs.glsl"
		}
	},
	"programs": {
		"program_mat0": {
			"attributes": [
				"a_position",
				"a_normal",
				"a_color"				
			],
			"vertexShader": "vertex_mat0",
			"fragmentShader": "fragment_mat0"
		}
	},
	"techniques": {
		"technique_mat0": {
			"program": "program_mat0",
			"extras": {"gvrss" : "https://vr.google.com/shaders/w/gvrss/paper.json"},
			"parameters": {
				"position": {
					"type": 35665,
					"semantic": "POSITION"
				},
				"normal": {
					"type": 35665,
					"semantic": "NORMAL"
				},
				"color": {
					"type": 35666,
					"semantic": "COLOR"
				},
				"modelViewMatrix": {
					"type": 35676,
					"semantic": "MODELVIEW"
				},
				"projectionMatrix": {
					"type": 35676,
					"semantic": "PROJECTION"
				},
				"normalMatrix": {
					"type": 35675,
					"semantic": "MODELVIEWINVERSETRANSPOSE"
				},
				"color": {
					"type": 35666
				},
				"roughness": {
					"type": 5126
				},
				"metallic": {
					"type": 5126
				},
				"light0Pos": {
					"type": 35666
				},
				"light0Color": {
					"type": 35666
				},
				"light1Pos": {
					"type": 35666
				},
				"light1Color": {
					"type": 35666
				}				
			},
			"attributes": {
				"a_position": "position",
				"a_normal": "normal",
				"a_color": "color"				
			},
			"uniforms": {
				"u_modelViewMatrix": "modelViewMatrix",
				"u_projectionMatrix": "projectionMatrix",
				"u_normalMatrix": "normalMatrix",
				"u_color": "color",
				"u_roughness": "roughness",
				"u_metallic": "metallic",
				"u_light0Pos": "light0Pos",
				"u_light0Color": "light0Color",
				"u_light1Pos": "light1Pos",
				"u_light1Color": "light1Color"				
			},
			"states": {
				"enable": [
					2929,
					2884
				],
				"functions": {
					"cullFace": [1029]
				}
			}
		}
	},
	"materials": {
		"material_mat0": {
			"technique": "technique_mat0",
			"values": {
				"color": [0.7294118, 0.4078431, 0.7843137, 1],
				"roughness": 0.72,
				"metallic": 0,
				"light0Pos": [-0.02, 4.11, -0.54, 0],
				"light0Color": [0.8, 0.8, 0.8, 0],
				"light1Pos": [0.02, -4.11, 0.54, 0],
				"light1Color": [0.64, 0.5647059, 0.5647059, 0]				
			},
			"name": "material_mat0"
		}
	},
	"nodes": {
		"node_MeshObject1921464320-PolyPaper0": {
			"name": "node_MeshObject1921464320-PolyPaper0",
			"meshes": [
				"mesh_m0-PolyPaper0_-21330"
			],
			"matrix": [1, 0, 0, 0, 0, 1, 0, 0, 0, 0, 1, 0, 0, 0, 0, 1]
		}
	},
	"scene": "defaultScene",
	"scenes": {
		"defaultScene": {
			"nodes": [
				"node_MeshObject1921464320-PolyPaper0"
			],
			"extras": {

			}
		}
	}
}