mtllib materials.mtl
v 0.01429286 -0.08341753 -0.09470892
v 0.03121803 -0.08192337 -0.05812711
v 0.03047012 0.0230118 -0.05949938
v 0.01259249 0.01993132 -0.09814334
v -0.1127647 -0.08355427 -0.03591806
v -0.1150665 0.05634952 -0.04056728
v -0.07312654 0.06005192 0.05008113
v -0.07260678 0.06009781 0.0512045
v -0.06939086 -0.07972538 0.05782944
v -0.07105514 -0.07987225 0.0542323
v -0.02585818 -0.08346069 -0.07613063
v -0.06960119 -0.08350778 -0.05589026
v 0.06031363 -0.07935488 0.004759669
v 0.05906827 -0.07946479 0.002067983
v 0.03022007 0.05809546 -0.05995822
v -0.008717632 0.05811012 -0.0402388
v -0.02812321 0.0564431 -0.08079678
v -0.02561367 0.05644584 -0.081958
v -0.02567907 0.01902115 -0.08039922
v 0.04033005 -0.07826674 0.04739827
v 0.040249 0.06163943 0.04172152
v 0.07073697 0.06167221 0.02761441
v -0.07030725 0.05639768 -0.06127781
v -0.0712051 0.05639672 -0.06086236
v 0.03226504 0.06163085 0.04541576
v -0.02604041 0.06156802 0.07239431
v 0.01630223 0.06025946 0.01205319
v 0.05581667 0.06035507 -0.004634142
v 0.001971135 0.04878485 -0.07861161
v -0.02590104 -0.07833803 0.07804406
v 0.05740723 -0.07122076 0.02778584
v -0.05138882 0.05529809 0.06611967
v -0.04879365 -0.07570946 0.07633233
v 0.06202101 -0.04234111 -0.01340091
v 0.01582573 -0.04207325 0.005728245
v 0.01621127 0.007924795 0.005958974
v 0.06240654 0.007656813 -0.01317018
v 0.04289386 -0.0419805 -0.05959636
v 0.04327939 0.00801754 -0.05936563
v -0.002915883 0.008285403 -0.04023647
v -0.003301417 -0.04171252 -0.0404672
v 0.01718024 0.02062213 0.008686602
v -0.02922377 0.01960289 0.02727771
v -0.03057419 0.06958067 0.02664679
v 0.01582982 0.07059991 0.008055687
v -0.001389733 0.01953447 -0.03772432
v -0.00274015 0.06951225 -0.03835523
v -0.04914416 0.06849301 -0.01976413
v -0.04779374 0.01851523 -0.01913321
v 0.04200554 -0.04155231 0.0540477
v -0.002851339 -0.04121757 0.07613277
v -0.002730008 0.008779645 0.07562143
v 0.04212687 0.008444905 0.05353642
v 0.01991831 -0.0419575 0.009192526
v 0.02003965 0.008039713 0.008681178
v -0.02481723 0.008374453 0.03076625
v -0.02493856 -0.04162276 0.03127754
vn 0.9075539 0.0009766975 -0.4199345
vn -0.9075539 -0.0009766975 0.4199345
vn 0.0164414 -0.9993132 0.03320858
vn -0.0164414 0.9993132 -0.03320858
vn -0.4196137 -0.03704288 -0.9069467
vn 0.4196137 0.03704288 0.9069467
vn -0.4196137 -0.03704288 -0.9069467
vn -0.4196137 -0.03704288 -0.9069467
vn -0.4196137 -0.03704288 -0.9069467
vn -0.0164414 0.9993132 -0.03320858
vn 0.9075539 0.0009766975 -0.4199345
vn -0.0164414 0.9993132 -0.03320858
vn 0.9075539 0.0009766975 -0.4199345
vn -0.4196137 -0.03704288 -0.9069467
vn 0.2652313 0.6400206 -0.7211283
vn 0.2886079 0.6072998 -0.7401976
vn 0.2593553 0.6050408 -0.7527685
vn 0.0164414 -0.9993132 0.03320858
vn 0.9075539 0.0009766975 -0.4199345
vn 0.4196137 0.03704288 0.9069467
vn 0.7653434 -0.07594294 0.6391261
vn 0.6541145 -0.6834857 0.3240087
vn 0.9824113 -0.09833538 0.1587393
vn -0.2491421 0.03882941 0.9676882
vn -0.570986 0.02574602 0.820556
vn -0.0164414 0.9993132 -0.03320858
vn -0.1326139 -0.9277014 0.3489753
vn -0.06563649 0.07625897 0.9949254
vn -0.6723826 0.04427967 0.7388783
vn -0.3302433 0.654273 0.6803428
vn 0.382543 -0.007213851 0.9239096
vn -0.382543 0.007213851 -0.9239096
vn -0.007710719 -0.9999596 -0.004615039
vn 0.007710719 0.9999596 0.004615039
vn 0.9239056 -0.005358556 -0.3825832
vn -0.9239056 0.005358556 0.3825832
vn 0.3713994 0.02175318 0.9282184
vn -0.3713994 -0.02175318 -0.9282184
vn 0.02700836 -0.9995556 0.01261839
vn -0.02700836 0.9995556 -0.01261839
vn 0.9280803 0.0203832 -0.3718219
vn -0.9280803 -0.0203832 0.3718219
vn 0.4417445 0.008102534 0.8971043
vn -0.4417445 -0.008102534 -0.8971043
vn -0.002426608 -0.9999448 0.01022627
vn 0.002426608 0.9999448 -0.01022627
vn 0.8971376 -0.006694318 -0.4417005
vn -0.8971376 0.006694318 0.4417005
vt 0.04869454 0.1235077
vt 0.0526248 0.1244145
vt 0.0504929 0.1346904
vt 0.04636948 0.1335849
vt -0.04869454 0.1235077
vt -0.0455471 0.1371493
vt -0.05528614 0.1393963
vt -0.05540683 0.1394242
vt -0.05876654 0.1258315
vt -0.05838007 0.1257424
vt 0.0778611 -0.02046436
vt 0.07833598 -0.02486289
vt 0.07885333 -0.02965493
vt 0.07936384 -0.03438348
vt 0.08924639 -0.03331654
vt 0.08876515 -0.01928714
vt 0.08847009 -0.01931899
vt 0.08187132 -0.02003141
vt -0.08218024 -0.01999806
vt -0.08280216 -0.02431815
vt -0.07833555 -0.02485887
vt -0.07830586 -0.02458395
vt -0.1112525 0.02036747
vt -0.1206197 0.02475064
vt -0.1223289 0.02089283
vt -0.1131276 0.01636037
vt 0.11278 0.01710312
vt 0.1253567 0.02325826
vt 0.1239329 0.02630098
vt -0.1256891 0.022548
vt -0.1258063 0.02229755
vt -0.1277762 0.01808755
vt -0.1151703 0.01199478
vt -0.1131276 0.01636037
vt -0.1223289 0.02089283
vt -0.1278182 0.01799794
vt -0.1298665 0.01362055
vt -0.117186 0.007687034
vt -0.1151703 0.01199478
vt -0.1277762 0.01808755
vt -0.1278182 0.01799794
vt -0.1151703 0.01199478
vt -0.09223523 -0.02317622
vt -0.09292482 -0.02956356
vt -0.08942414 -0.03329735
vt -0.08930099 -0.03331064
vt -0.08856104 -0.023621
vt 0.0526248 0.1244145
vt 0.05909201 0.1259066
vt 0.05572401 0.1394974
vt 0.04978012 0.138126
vt 0.0504929 0.1346904
vt -0.08218024 -0.01999806
vt -0.08824503 -0.01934329
vt -0.09178022 -0.01896163
vt -0.09214081 -0.02230158
vt -0.09223523 -0.02317622
vt -0.08856104 -0.023621
vt -0.08280216 -0.02431815
vt 0.0504929 0.1346904
vt 0.04978012 0.138126
vt 0.04636948 0.1335849
vt -0.1206197 0.02475064
vt -0.1256891 0.022548
vt -0.1223289 0.02089283
vt -0.1451151 0.01755804
vt -0.1442897 0.02031973
vt -0.145706 0.02353232
vt -0.1454535 0.02944535
vt -0.1441772 0.02617466
vt -0.1405561 0.02656978
vt -0.1405227 0.02764348
vt -0.1441451 0.02726113
vt -0.1450965 0.0245403
vt 0.08924639 -0.03331654
vt 0.08964072 -0.03327397
vt 0.0929504 -0.02980045
vt 0.09216706 -0.02254486
vt 0.08876515 -0.01928714
vt 0.05909201 0.1259066
vt 0.05938119 0.1259734
vt 0.05918871 0.1402967
vt 0.05572401 0.1394974
vt 0.11278 0.01710312
vt 0.115873 0.0104932
vt 0.1284524 0.01664253
vt 0.1257296 0.02246146
vt 0.1253567 0.02325826
vt 0.1445283 0.01298022
vt 0.1334876 0.00546455
vt 0.1341992 0.00286593
vt 0.1340505 0.03344763
vt 0.1327984 0.03583331
vt 0.130416 0.03644371
vt 0.1383699 0.03090833
vt 0.1406567 0.03000342
vt 0.1492448 0.04023219
vt 0.08185767 0.07555319
vt 0.09476677 0.08000956
vt 0.09397186 0.08257478
vt 0.06392236 0.1170166
vt 0.06188032 0.1186861
vt 0.05283117 0.1084707
vt -0.08930099 -0.03331064
vt -0.07936384 -0.03438348
vt -0.07884508 -0.02957847
vt -0.07883446 -0.02948012
vt -0.07833555 -0.02485887
vt -0.08280216 -0.02431815
vt -0.08856104 -0.023621
vt 0.1213111 -0.03553274
vt 0.1235119 -0.03380529
vt 0.1239732 -0.03154116
vt 0.08949669 0.05544227
vt 0.0908263 0.0535525
vt 0.1025205 0.05955125
vt 0.03890676 0.1310673
vt 0.0293674 0.1220262
vt 0.03112954 0.1198532
vt -0.004457154 0.05722006
vt -0.003048902 0.05493335
vt -0.0006877641 0.05375775
vt 0.1161023 0.02758911
vt 0.1182599 0.02307861
vt 0.1227704 0.02523627
vt 0.1206128 0.02974676
vt -0.1161023 0.0275891
vt -0.1206128 0.02974676
vt -0.1227704 0.02523626
vt -0.1182599 0.02307861
vt 0.08180448 -0.02145384
vt 0.07680984 -0.02168505
vt 0.07704104 -0.0266797
vt 0.08203568 -0.02644849
vt -0.08180448 -0.02145384
vt -0.08203568 -0.02644849
vt -0.07704104 -0.02667969
vt -0.07680984 -0.02168505
vt 0.06911506 0.1238741
vt 0.06863347 0.1288509
vt 0.06365672 0.1283693
vt 0.06413831 0.1233925
vt -0.06911506 0.1238741
vt -0.06413831 0.1233925
vt -0.06365672 0.1283693
vt -0.06863347 0.1288509
vt 0.1213649 0.02547487
vt 0.1234 0.02090778
vt 0.1279671 0.02294292
vt 0.1259319 0.02751
vt -0.1213649 0.02547487
vt -0.1259319 0.02751
vt -0.1279671 0.02294292
vt -0.1234 0.02090778
vt 0.08602505 -0.0220812
vt 0.08103066 -0.02231794
vt 0.0812674 -0.02731233
vt 0.08626179 -0.02707559
vt -0.08602505 -0.0220812
vt -0.08626179 -0.02707559
vt -0.0812674 -0.02731233
vt -0.08103066 -0.02231794
vt 0.07158406 0.1295242
vt 0.07105517 0.1344961
vt 0.06608322 0.1339672
vt 0.06661211 0.1289953
vt -0.07158406 0.1295242
vt -0.06661211 0.1289953
vt -0.06608323 0.1339672
vt -0.07105517 0.1344961
vt 0.1192759 0.01813466
vt 0.1214442 0.01362923
vt 0.1259496 0.01579746
vt 0.1237814 0.02030287
vt -0.1192759 0.01813465
vt -0.1237814 0.02030287
vt -0.1259496 0.01579745
vt -0.1214442 0.01362923
vt 0.08948745 -0.02496139
vt 0.08452263 -0.02555347
vt 0.0851147 -0.03051829
vt 0.09007953 -0.02992622
vt -0.08948745 -0.02496139
vt -0.09007953 -0.02992621
vt -0.08511471 -0.03051829
vt -0.08452262 -0.02555347
vt 0.0556371 0.1326174
vt 0.05443447 0.1374706
vt 0.04958125 0.1362679
vt 0.0507839 0.1314147
vt -0.05563711 0.1326174
vt -0.05078389 0.1314147
vt -0.04958126 0.1362679
vt -0.05443446 0.1374706
o group738028682
g mesh738028682
usemtl mat0
f 4/4/1 3/3/1 2/2/1 1/1/1
f 10/10/2 9/9/2 8/8/2 7/7/2 6/6/2 5/5/2
f 2/18/3 14/17/3 13/16/3 10/15/3 5/14/3 12/13/3 11/12/3 1/11/3
f 18/22/4 17/21/4 16/20/4 15/19/4
f 11/26/5 19/25/5 4/24/5 1/23/5
f 22/29/6 21/28/6 20/27/6
f 19/35/7 11/34/7 12/33/7 23/32/7 17/31/7 18/30/7
f 12/39/8 5/38/8 6/37/8 24/36/8
f 12/42/9 24/41/9 23/40/9
f 27/47/10 7/46/10 8/45/10 26/44/10 25/43/10
f 3/52/11 15/51/11 28/50/11 14/49/11 2/48/11
f 16/59/12 27/58/12 25/57/12 21/56/12 22/55/12 28/54/12 15/53/12
f 4/62/13 15/61/13 3/60/13
f 19/65/14 18/64/14 4/63/14
f 15/68/15 29/67/15 18/66/15
f 4/71/16 29/70/16 15/69/16
f 18/74/17 29/73/17 4/72/17
f 13/79/18 20/78/18 30/77/18 9/76/18 10/75/18
f 28/83/19 22/82/19 13/81/19 14/80/19
f 21/88/20 25/87/20 26/86/20 30/85/20 20/84/20
f 20/91/21 31/90/21 22/89/21
f 13/94/22 31/93/22 20/92/22
f 22/97/23 31/96/23 13/95/23
f 26/100/24 32/99/24 30/98/24
f 9/103/25 32/102/25 8/101/25
f 27/110/26 16/109/26 17/108/26 23/107/26 24/106/26 6/105/26 7/104/26
f 30/113/27 33/112/27 9/111/27
f 32/116/28 33/115/28 30/114/28
f 9/119/29 33/118/29 32/117/29
f 8/122/30 32/121/30 26/120/30
o group1626000479
g mesh1626000479
usemtl mat0
f 37/126/31 36/125/31 35/124/31 34/123/31
f 41/130/32 40/129/32 39/128/32 38/127/32
f 35/134/33 41/133/33 38/132/33 34/131/33
f 39/138/34 40/137/34 36/136/34 37/135/34
f 38/142/35 39/141/35 37/140/35 34/139/35
f 36/146/36 40/145/36 41/144/36 35/143/36
o group69603248
g mesh69603248
usemtl mat0
f 45/150/37 44/149/37 43/148/37 42/147/37
f 49/154/38 48/153/38 47/152/38 46/151/38
f 43/158/39 49/157/39 46/156/39 42/155/39
f 47/162/40 48/161/40 44/160/40 45/159/40
f 46/166/41 47/165/41 45/164/41 42/163/41
f 44/170/42 48/169/42 49/168/42 43/167/42
o group1690389184
g mesh1690389184
usemtl mat0
f 53/174/43 52/173/43 51/172/43 50/171/43
f 57/178/44 56/177/44 55/176/44 54/175/44
f 51/182/45 57/181/45 54/180/45 50/179/45
f 55/186/46 56/185/46 52/184/46 53/183/46
f 54/190/47 55/189/47 53/188/47 50/187/47
f 52/194/48 56/193/48 57/192/48 51/191/48
