{
	"asset": {
		"generator": "Blocks",
		"version": "105",
		"copyright": "Unknown"
	},
	"buffers": {
		"model": {
			"byteLength": 81784,
			"type": "arraybuffer",
			"uri": "model.bin"
		}
	},
	"accessors": {
		"accessor_position_m0-PolyPaper0_-19434": {
			"bufferView": "vec3BufferView",
			"byteOffset": 0,
			"byteStride": 12,
			"componentType": 5126,
			"count": 1906,
			"max": [ 1.027576, 2.133815, -0.9199726 ],
			"min": [ -0.8729722, 0.4199658, -2.694057 ],
			"type": "VEC3"
		 },
		"accessor_normal_m0-PolyPaper0_-19434": {
			"bufferView": "vec3BufferView",
			"byteOffset": 22872,
			"byteStride": 12,
			"componentType": 5126,
			"count": 1906,
			"max": [ 0.9995957, 0.9972025, 0.9999527 ],
			"min": [ -0.9995956, -1, -0.9999527 ],
			"type": "VEC3"
		 },
		"accessor_color_m0-PolyPaper0_-19434": {
			"bufferView": "vec4BufferView",
			"byteOffset": 0,
			"byteStride": 16,
			"componentType": 5126,
			"count": 1906,
			"max": [ 1, 1, 1, 1 ],
			"min": [ 0.6117647, 0.1529412, 0, 1 ],
			"type": "VEC4"
		 },
		"accessor_indices_0_m0-PolyPaper0_-19434": {
			"bufferView": "ushortBufferView",
			"byteOffset": 0,
			"byteStride": 0,
			"componentType": 5123,
			"count": 2772,
			"max": [ 1905 ],
			"min": [ 0 ],
			"type": "SCALAR"
		 }
	},
	"bufferViews": {
		"ushortBufferView": {
			"buffer": "model",
			"byteLength": 5544,
			"byteOffset": 0,
			"target": 34963
		},
		"vec3BufferView": {
			"buffer": "model",
			"byteLength": 45744,
			"byteOffset": 5544,
			"target": 34962
		},
		"vec4BufferView": {
			"buffer": "model",
			"byteLength": 30496,
			"byteOffset": 51288,
			"target": 34962
		}
	},
	"meshes": {
		"mesh_m0-PolyPaper0_-19434": {
			"name": "mesh_m0-PolyPaper0_-19434",
			"primitives": [
				{
					"attributes": {
						"POSITION": "accessor_position_m0-PolyPaper0_-19434",
						"NORMAL": "accessor_normal_m0-PolyPaper0_-19434",
						"COLOR": "accessor_color_m0-PolyPaper0_-19434"
					},
					"indices": "accessor_indices_0_m0-PolyPaper0_-19434",
					"material": "material_mat0",
					"mode": 4
				}
			]
		}
	},
	"shaders": {
		"vertex_mat0": {
			"type": 35633,
			"uri": "https://vr.google.com/shaders/w/vs.glsl"
		},
		"fragment_mat0": {
			"type": 35632,
			"uri": "https://vr.google.com/shaders/w/fs.glsl"
		}
	},
	"programs": {
		"program_mat0": {
			"attributes": [
				"a_position",
				"a_normal",
				"a_color"				
			],
			"vertexShader": "vertex_mat0",
			"fragmentShader": "fragment_mat0"
		}
	},
	"techniques": {
		"technique_mat0": {
			"program": "program_mat0",
			"extras": {"gvrss" : "https://vr.google.com/shaders/w/gvrss/paper.json"},
			"parameters": {
				"position": {
					"type": 35665,
					"semantic": "POSITION"
				},
				"normal": {
					"type": 35665,
					"semantic": "NORMAL"
				},
				"color": {
					"type": 35666,
					"semantic": "COLOR"
				},
				"modelViewMatrix": {
					"type": 35676,
					"semantic": "MODELVIEW"
				},
				"projectionMatrix": {
					"type": 35676,
					"semantic": "PROJECTION"
				},
				"normalMatrix": {
					"type": 35675,
					"semantic": "MODELVIEWINVERSETRANSPOSE"
				},
				"color": {
					"type": 35666
				},
				"roughness": {
					"type": 5126
				},
				"metallic": {
					"type": 5126
				},
				"light0Pos": {
					"type": 35666
				},
				"light0Color": {
					"type": 35666
				},
				"light1Pos": {
					"type": 35666
				},
				"light1Color": {
					"type": 35666
				}				
			},
			"attributes": {
				"a_position": "position",
				"a_normal": "normal",
				"a_color": "color"				
			},
			"uniforms": {
				"u_modelViewMatrix": "modelViewMatrix",
				"u_projectionMatrix": "projectionMatrix",
				"u_normalMatrix": "normalMatrix",
				"u_color": "color",
				"u_roughness": "roughness",
				"u_metallic": "metallic",
				"u_light0Pos": "light0Pos",
				"u_light0Color": "light0Color",
				"u_light1Pos": "light1Pos",
				"u_light1Color": "light1Color"				
			},
			"states": {
				"enable": [
					2929,
					2884
				],
				"functions": {
					"cullFace": [1029]
				}
			}
		}
	},
	"materials": {
		"material_mat0": {
			"technique": "technique_mat0",
			"values": {
				"color": [0.7294118, 0.4078431, 0.7843137, 1],
				"roughness": 0.72,
				"metallic": 0,
				"light0Pos": [-0.02, 4.11, -0.54, 0],
				"light0Color": [0.8, 0.8, 0.8, 0],
				"light1Pos": [0.02, -4.11, 0.54, 0],
				"light1Color": [0.64, 0.5647059, 0.5647059, 0]				
			},
			"name": "material_mat0"
		}
	},
	"nodes": {
		"node_MeshObject-968782144-PolyPaper0": {
			"name": "node_MeshObject-968782144-PolyPaper0",
			"meshes": [
				"mesh_m0-PolyPaper0_-19434"
			],
			"matrix": [1, 0, 0, 0, 0, 1, 0, 0, 0, 0, 1, 0, 0, 0, 0, 1]
		}
	},
	"scene": "defaultScene",
	"scenes": {
		"defaultScene": {
			"nodes": [
				"node_MeshObject-968782144-PolyPaper0"
			],
			"extras": {

			}
		}
	}
}